# xmcd
#
# Track frame offsets:
#	150
#	23535
#	46575
#	71745
#
# Disc length: 1117 seconds
#
# Revision: 1
# Processed by: cddbd v1.5PL3 Copyright (c) Steve Scherf et al.
# Submitted via: CDex 1.50Beta5
#
DISCID=26045b04
DTITLE=MILKRUN - How About The Milkrun? ~Apple Of My Eye~
DYEAR=2003
DGENRE=Pop
TTITLE0=Apple Of My Eye
TTITLE1=嘘のない歌
TTITLE2=夜空へと
TTITLE3=夢のカリフォルニア
EXTD=
EXTT0=
EXTT1=
EXTT2=
EXTT3=
PLAYORDER=
